<svg width="524.3221557617187px" height="116px" xmlns="http://www.w3.org/2000/svg" viewBox="-12.161077880859352 17 524.3221557617187 116" style="background: rgb(9, 16, 26);" preserveAspectRatio="xMidYMid"><defs><filter id="editing-extrude-glow"><feFlood flood-color="#ffffff" result="flood-1"></feFlood><feMorphology operator="erode" radius="1" in="SourceAlpha" result="erode"></feMorphology><feComposite operator="in" in="flood-1" in2="erode" result="comp1"></feComposite><feConvolveMatrix order="0,0" divisor="1" in="comp1" result="convolve" kernelMatrix=""></feConvolveMatrix><feOffset dx="0" dy="0" in="convolve" result="extrude"></feOffset><feComposite operator="in" in="flood-1" in2="extrude" result="comp-extrude"></feComposite><feFlood flood-color="#000000" result="flood-2"></feFlood><feComposite operator="in" in="flood-2" in2="SourceAlpha" result="comp2"></feComposite><feMorphology operator="dilate" radius="1" in="comp2" result="dilate"></feMorphology><feOffset dx="0" dy="0" in="dilate" result="offset"></feOffset><feGaussianBlur in="offset" stdDeviation="5.8" result="blur"></feGaussianBlur><feComponentTransfer in="blur" result="shadow"><feFuncA type="linear" slope="0.8" intercept="-0.2"></feFuncA></feComponentTransfer><feMerge><feMergeNode in="shadow"></feMergeNode><feMergeNode in="comp-extrude"></feMergeNode><feMergeNode in="SourceGraphic"></feMergeNode></feMerge></filter></defs><g filter="url(#editing-extrude-glow)"><g transform="translate(64.11770606040955, 99.125)"><path d="M32.19-39.74L32.19 0L21.31 0L21.31-15.04L13.82-15.04L13.82 0L2.82 0L2.82-39.74L13.82-39.74L13.82-24.13L21.31-24.13L21.31-39.74L32.19-39.74ZM49.09-39.74L49.09 0L38.21 0L38.21-39.74L49.09-39.74ZM63.17-9.47L63.17-9.47L63.17-9.47Q69.12-9.47 69.12-3.58L69.12-3.58L69.12-3.58Q69.12-1.34 67.84 0.74L67.84 0.74L67.84 0.74Q66.56 2.82 65.15 4.06L65.15 4.06L65.15 4.06Q63.74 5.31 61.12 7.23L61.12 7.23L57.34 5.82L61.38 0.51L61.25 0.19L61.25 0.19Q57.79-0.77 57.79-4.35L57.79-4.35L57.79-4.35Q57.79-9.47 63.17-9.47ZM99.78-39.74L99.78 0L88.90 0L88.90-39.74L99.78-39.74ZM106.11-35.97L106.11-35.97Q106.11-41.02 111.81-41.02L111.81-41.02L111.81-41.02Q117.50-41.02 117.50-35.23L117.50-35.23L117.50-35.23Q117.50-29.44 109.44-24.38L109.44-24.38L105.66-25.79L109.63-30.98L109.50-31.30L109.50-31.30Q106.11-32 106.11-35.97L106.11-35.97ZM158.34-39.74L159.68 0L149.63 0L149.63-20.74L149.06-20.74L145.28 0L134.98 0L131.39-20.74L130.75-20.74L130.75 0L120.83 0L122.18-39.74L136.58-39.74L140.16-18.24L140.67-18.24L144.13-39.74L158.34-39.74ZM176.58-27.78L176.58-27.78Q176.58-33.47 179.90-36.93L179.90-36.93L179.90-36.93Q183.23-40.38 189.02-40.38L189.02-40.38L189.02-40.38Q194.82-40.38 200.90-39.23L200.90-39.23L199.62-28.99L199.62-28.99Q193.28-30.46 190.91-30.46L190.91-30.46L190.91-30.46Q187.90-30.46 187.90-28.03L187.90-28.03L187.90-28.03Q187.90-27.07 189.34-26.18L189.34-26.18L189.34-26.18Q190.78-25.28 192.83-24.29L192.83-24.29L192.83-24.29Q194.88-23.30 196.93-21.92L196.93-21.92L196.93-21.92Q198.98-20.54 200.42-17.98L200.42-17.98L200.42-17.98Q201.86-15.42 201.86-12.10L201.86-12.10L201.86-12.10Q201.86-6.02 198.59-2.69L198.59-2.69L198.59-2.69Q195.33 0.64 189.34 0.64L189.34 0.64L189.34 0.64Q183.36 0.64 177.66-1.22L177.66-1.22L178.37-10.75L178.37-10.75Q185.22-8.77 187.90-8.77L187.90-8.77L187.90-8.77Q190.59-8.77 190.59-11.14L190.59-11.14L190.59-11.14Q190.59-12.35 189.15-13.38L189.15-13.38L189.15-13.38Q187.71-14.40 185.66-15.42L185.66-15.42L185.66-15.42Q183.62-16.45 181.54-17.79L181.54-17.79L181.54-17.79Q179.46-19.14 178.02-21.70L178.02-21.70L178.02-21.70Q176.58-24.26 176.58-27.78L176.58-27.78ZM216.90-13.06L216.90-13.06Q216.90-11.07 217.73-10.11L217.73-10.11L217.73-10.11Q218.56-9.15 220.45-9.15L220.45-9.15L220.45-9.15Q222.34-9.15 223.07-10.08L223.07-10.08L223.07-10.08Q223.81-11.01 223.81-13.12L223.81-13.12L223.81-39.74L234.82-39.74L234.82-12.48L234.82-12.48Q234.82-5.63 231.07-2.50L231.07-2.50L231.07-2.50Q227.33 0.64 220.06 0.64L220.06 0.64L220.06 0.64Q212.80 0.64 209.25-2.46L209.25-2.46L209.25-2.46Q205.70-5.57 205.70-12.35L205.70-12.35L205.70-39.74L216.90-39.74L216.90-13.06ZM242.50-39.74L253.25-39.74L253.25-8L253.25-8Q253.25-3.07 251.01-1.22L251.01-1.22L251.01-1.22Q248.77 0.64 242.75 0.64L242.75 0.64L239.49 0.64L238.66-8.06L240.83-8.06L240.83-8.06Q241.92-8.06 242.21-8.35L242.21-8.35L242.21-8.35Q242.50-8.64 242.50-9.60L242.50-9.60L242.50-39.74ZM280.13-39.74L287.42 0L276.74 0L275.52-6.27L267.97-6.27L266.75 0L256.58 0L263.87-39.74L280.13-39.74ZM269.38-13.76L274.30-13.76L272.06-27.97L271.62-27.97L269.38-13.76ZM306.11-39.74L317.63-39.74L308.16-12.29L308.16 0L297.28 0L297.28-12.29L287.94-39.74L299.97-39.74L302.85-26.82L303.36-26.82L306.11-39.74ZM342.59-8.96L341.95 0L320.45 0L320.45-39.74L342.59-39.74L341.95-29.95L331.39-29.95L331.39-24L340.54-24L340.54-15.55L331.39-15.55L331.39-8.96L342.59-8.96ZM370.05-39.74L369.41-30.08L361.98-30.08L361.98 0L351.04 0L351.04-30.08L343.17-30.08L343.81-39.74L370.05-39.74Z" fill="#ffffff"></path></g></g><style>text {
  font-size: 64px;
  font-family: Arial Black;
  dominant-baseline: central;
  text-anchor: middle;
}</style></svg>