<svg width="408.1290283203125px" height="116px" xmlns="http://www.w3.org/2000/svg" viewBox="45.93548583984375 17 408.1290283203125 116" style="background: rgb(9, 16, 26);" preserveAspectRatio="xMidYMid"><defs><filter id="editing-extrude-glow"><feFlood flood-color="#ffffff" result="flood-1"></feFlood><feMorphology operator="erode" radius="1" in="SourceAlpha" result="erode"></feMorphology><feComposite operator="in" in="flood-1" in2="erode" result="comp1"></feComposite><feConvolveMatrix order="0,0" divisor="1" in="comp1" result="convolve" kernelMatrix=""></feConvolveMatrix><feOffset dx="0" dy="0" in="convolve" result="extrude"></feOffset><feComposite operator="in" in="flood-1" in2="extrude" result="comp-extrude"></feComposite><feFlood flood-color="#000000" result="flood-2"></feFlood><feComposite operator="in" in="flood-2" in2="SourceAlpha" result="comp2"></feComposite><feMorphology operator="dilate" radius="1" in="comp2" result="dilate"></feMorphology><feOffset dx="0" dy="0" in="dilate" result="offset"></feOffset><feGaussianBlur in="offset" stdDeviation="5.8" result="blur"></feGaussianBlur><feComponentTransfer in="blur" result="shadow"><feFuncA type="linear" slope="0.8" intercept="-0.2"></feFuncA></feComponentTransfer><feMerge><feMergeNode in="shadow"></feMergeNode><feMergeNode in="comp-extrude"></feMergeNode><feMergeNode in="SourceGraphic"></feMergeNode></feMerge></filter></defs><g filter="url(#editing-extrude-glow)"><g transform="translate(106.51795864105225, 95.82999992370605)"><path d="M14.34-39.74L14.34 0L3.46 0L3.46-39.74L14.34-39.74ZM20.67-35.97L20.67-35.97Q20.67-41.02 26.37-41.02L26.37-41.02L26.37-41.02Q32.06-41.02 32.06-35.23L32.06-35.23L32.06-35.23Q32.06-29.44 24-24.38L24-24.38L20.22-25.79L24.19-30.98L24.06-31.30L24.06-31.30Q20.67-32 20.67-35.97L20.67-35.97ZM72.90-39.74L74.24 0L64.19 0L64.19-20.74L63.62-20.74L59.84 0L49.54 0L45.95-20.74L45.31-20.74L45.31 0L35.39 0L36.74-39.74L51.14-39.74L54.72-18.24L55.23-18.24L58.69-39.74L72.90-39.74ZM91.14-27.78L91.14-27.78Q91.14-33.47 94.46-36.93L94.46-36.93L94.46-36.93Q97.79-40.38 103.58-40.38L103.58-40.38L103.58-40.38Q109.38-40.38 115.46-39.23L115.46-39.23L114.18-28.99L114.18-28.99Q107.84-30.46 105.47-30.46L105.47-30.46L105.47-30.46Q102.46-30.46 102.46-28.03L102.46-28.03L102.46-28.03Q102.46-27.07 103.90-26.18L103.90-26.18L103.90-26.18Q105.34-25.28 107.39-24.29L107.39-24.29L107.39-24.29Q109.44-23.30 111.49-21.92L111.49-21.92L111.49-21.92Q113.54-20.54 114.98-17.98L114.98-17.98L114.98-17.98Q116.42-15.42 116.42-12.10L116.42-12.10L116.42-12.10Q116.42-6.02 113.15-2.69L113.15-2.69L113.15-2.69Q109.89 0.64 103.90 0.64L103.90 0.64L103.90 0.64Q97.92 0.64 92.22-1.22L92.22-1.22L92.93-10.75L92.93-10.75Q99.78-8.77 102.46-8.77L102.46-8.77L102.46-8.77Q105.15-8.77 105.15-11.14L105.15-11.14L105.15-11.14Q105.15-12.35 103.71-13.38L103.71-13.38L103.71-13.38Q102.27-14.40 100.22-15.42L100.22-15.42L100.22-15.42Q98.18-16.45 96.10-17.79L96.10-17.79L96.10-17.79Q94.02-19.14 92.58-21.70L92.58-21.70L92.58-21.70Q91.14-24.26 91.14-27.78L91.14-27.78ZM131.46-13.06L131.46-13.06Q131.46-11.07 132.29-10.11L132.29-10.11L132.29-10.11Q133.12-9.15 135.01-9.15L135.01-9.15L135.01-9.15Q136.90-9.15 137.63-10.08L137.63-10.08L137.63-10.08Q138.37-11.01 138.37-13.12L138.37-13.12L138.37-39.74L149.38-39.74L149.38-12.48L149.38-12.48Q149.38-5.63 145.63-2.50L145.63-2.50L145.63-2.50Q141.89 0.64 134.62 0.64L134.62 0.64L134.62 0.64Q127.36 0.64 123.81-2.46L123.81-2.46L123.81-2.46Q120.26-5.57 120.26-12.35L120.26-12.35L120.26-39.74L131.46-39.74L131.46-13.06ZM157.06-39.74L167.81-39.74L167.81-8L167.81-8Q167.81-3.07 165.57-1.22L165.57-1.22L165.57-1.22Q163.33 0.64 157.31 0.64L157.31 0.64L154.05 0.64L153.22-8.06L155.39-8.06L155.39-8.06Q156.48-8.06 156.77-8.35L156.77-8.35L156.77-8.35Q157.06-8.64 157.06-9.60L157.06-9.60L157.06-39.74ZM194.69-39.74L201.98 0L191.30 0L190.08-6.27L182.53-6.27L181.31 0L171.14 0L178.43-39.74L194.69-39.74ZM183.94-13.76L188.86-13.76L186.62-27.97L186.18-27.97L183.94-13.76ZM220.67-39.74L232.19-39.74L222.72-12.29L222.72 0L211.84 0L211.84-12.29L202.50-39.74L214.53-39.74L217.41-26.82L217.92-26.82L220.67-39.74ZM257.15-8.96L256.51 0L235.01 0L235.01-39.74L257.15-39.74L256.51-29.95L245.95-29.95L245.95-24L255.10-24L255.10-15.55L245.95-15.55L245.95-8.96L257.15-8.96ZM284.61-39.74L283.97-30.08L276.54-30.08L276.54 0L265.60 0L265.60-30.08L257.73-30.08L258.37-39.74L284.61-39.74Z" fill="#ffffff"></path></g></g><style>text {
  font-size: 64px;
  font-family: Arial Black;
  dominant-baseline: central;
  text-anchor: middle;
}</style></svg>